<svg height="283.99301mm" viewBox="0 0 344.46198 283.99301" width="344.46198mm" xmlns="http://www.w3.org/2000/svg"><path d="m-536.99485 891.86736c-3.10054-.3116-3.57253-.3841-7.05556-1.084-1.34653-.2706-3.37716-.7999-4.32153-1.1264-2.6444-.9142-3.25045-1.1445-5.37986-2.0441-3.63335-1.535-11.5816-6.2425-12.6118-7.4696-.0485-.058-.56445-.5009-1.14653-.9848-2.59213-2.1546-6.13225-5.6919-7.76955-7.7633-.38342-.4851-.74006-.9216-.79255-.9702-.11719-.1083-2.42936-3.2305-2.95554-3.991-1.47617-2.1334-4.23205-7.2377-5.32115-9.8555-.0807-.194-.26902-.6322-.41843-.9738-.49574-1.1333-1.62802-4.1307-1.831-4.847-.10996-.3881-.39839-1.3803-.64097-2.2049-.24257-.8246-.53211-1.9755-.64341-2.5576-.11131-.5821-.27043-1.3362-.3536-1.6757-.39383-1.6077-.85704-5.397-1.05703-8.6472-.22729-3.6937-.22966-140.73906-.002-144.63477.25243-4.32919.8883-9.11014 1.67738-12.6118.15303-.6791.35842-1.59191.45643-2.02847.098-.43657.25942-1.11125.3587-1.49931.0993-.38806.22324-.96426.27545-1.28045.0522-.3162.16555-.61854.25184-.67187.0863-.0533.1569-.23546.1569-.40472 0-.36066 1.15764-4.02752 1.41298-4.47564.096-.16845.17452-.46143.17452-.65104 0-.18962.0691-.38749.15361-.4397.0845-.0522.20039-.32887.25757-.61479.0572-.28592.27379-.90273.48134-1.37068.20755-.46796.44073-1.00958.51819-1.20361.0774-.19403.25972-.63059.40503-.97014.14532-.33955.44442-1.05392.66466-1.5875.9125-2.21064 4.08623-8.21503 5.68725-10.75972 9.22723-14.66591 21.48986-25.84161 36.37054-33.14676 1.97187-.96802 4.48282-2.13102 4.60092-2.13102.0425 0 .4534-.16666.91316-.37036s1.01452-.44182 1.2328-.52917c.21828-.0873.57547-.23659.79375-.33165.21828-.0951.99219-.37735 1.71979-.6273s1.48167-.52134 1.6757-.6031c.71132-.29974 3.07869-1.0632 4.40972-1.42211 9.15403-2.46838 14.79901-3.22671 23.98889-3.2226 7.25907.003 10.33229.25565 15.7868 1.29657.43656.0833 1.23527.22509 1.7749.31506.94221.15709 3.46027.73334 4.75149 1.08736 4.78701 1.31249 8.19376 2.42917 10.58333 3.46905.33955.14776.77611.32932.97014.40346 1.40989.53875 3.68721 1.5699 6.17361 2.79534 3.56974 1.75938 10.41759 5.83209 12.00608 7.14053.18763.15455 1.33796 1.02053 2.55629 1.92439 3.60895 2.67745 8.06884 6.80233 9.1563 8.46851.36204.55472 1.00751 1.41768 1.43438 1.9177 3.7762 4.4233 2.65551 10.1202-2.53691 12.89609-.78004.41701-1.70309.91453-2.05122 1.10559-6.99087 3.83679-17.70419 13.61443-21.45871 19.58456-.18303.29104-.38592.56885-.45087.61736-.12788.0955-2.80566 4.28235-3.38439 5.29167-.86396 1.50674-1.75753 3.18098-2.30649 4.32152-1.09681 2.27879-1.80593 3.91273-2.5645 5.90903-.31334.82462-.62753 1.61837-.6982 1.76389-.0707.14552-.3521.97896-.62539 1.85208-.27329.87313-.55744 1.74625-.63145 1.94028-.074.19403-.2322.70997-.35152 1.14653s-.28023.99219-.35758 1.23472c-.18954.59439-.449 1.74083-.77843 3.43959-.1505.77611-.35109 1.80798-.44575 2.29305-.21866 1.12045-.31845 1.77586-.53714 3.52778-.0969.77611-.26711 2.12549-.37828 2.99861-.14673 1.15246-.23422 19.44845-.31926 66.76316-.11847 65.9143-.11621 65.6947-.71614 69.5855-.6088 3.9483-.77032 4.8694-1.00521 5.7326-.1452.5336-.30017 1.2083-.34439 1.4993-.0442.291-.14631.6879-.22688.8819-.0806.1941-.32304.9481-.53884 1.6757-.53874 1.8165-.86848 2.8458-1.04542 3.2632-.0822.1941-.27668.6426-.43209.9968s-.28257.7023-.28257.7735c0 .2103-2.57263 5.4051-3.19194 6.4454-3.1386 5.2719-8.60252 11.7303-12.59487 14.8874-.48506.3836-.92163.7441-.97013.801-.0485.057-.4057.337-.79375.6223-.38806.2854-.74525.5617-.79375.6141-2.88961 3.1193-14.57713 8.2306-22.225 9.7197-4.45048.8664-12.05872 1.227-16.49236.7815zm120.38541-.013c-3.28649-.281-4.3034-.4463-7.76111-1.2611-2.13578-.5034-2.04611-.4748-4.90484-1.5639-12.00858-4.5752-21.99804-14.6631-26.57842-26.8403-.35802-.9518-.71804-1.8893-.80004-2.0834-.81016-1.9168-1.96202-6.3298-2.55526-9.7895-.54126-3.1566-.66256-4.0306-.8324-5.9973-.26183-3.0318-.39802-130.01816-.14303-133.34997.29026-3.7925 1.15921-9.58458 1.60098-10.67153.0789-.19403.1809-.55121.22676-.79375.29388-1.55418 2.11163-7.08625 2.89794-8.81944.19805-.43657.57463-1.30969.83682-1.94028.47739-1.14814 1.50343-3.25069 2.15193-4.40972 1.45698-2.60399 1.69601-3.00092 3.18006-5.28079 4.71391-7.24172 10.9951-13.58209 18.5695-18.74448 1.21267-.82651 2.56205-1.70227 2.99861-1.94615s1.27-.71368 1.85208-1.044c2.03831-1.1567 5.90165-2.98531 8.0257-3.79874.63059-.2415 1.30528-.50732 1.4993-.59072.48918-.21028 2.83323-.97004 3.79236-1.2292.43657-.11796.9525-.27882 1.14653-.35747.19403-.0786.55122-.18074.79375-.22688.24254-.0461.87754-.20265 1.41111-.34779.53358-.14515 1.68452-.39551 2.55764-.55636.87313-.16085 1.74625-.33257 1.94028-.3816.36818-.093 1.89459-.31744 4.14514-.60937 4.69524-.60905 13.95961-.32987 18.69722.56344 1.92792.36352 4.92085 1.02166 5.46806 1.20242.39813.13151.95724.29173 2.55764.73292 1.13568.31308 3.38787 1.08702 4.09911 1.40861.41126.18596.81789.3381.90362.3381.14591 0 .74475.24697 2.67018 1.10121 2.2124.98156 6.19349 3.05111 7.08279 3.68194.25751.18267.52177.33213.58724.33213.13029 0 3.47612 2.12691 3.61886 2.30048.0485.059.57492.43523 1.16981.83609.93838.63234 2.63203 1.97088 4.82741 3.81526 2.74664 2.3075 7.6822 7.80772 10.06476 11.21622.71204 1.01865 1.63582 2.24746 2.05286 2.7307 3.5024 4.05839 2.47432 9.29267-2.48417 12.64762-4.21848 2.85425-9.21596 7.45832-11.71567 10.79338-1.24233 1.65749-3.20944 4.4723-3.20944 4.59249 0 .0373-.32273.59903-.71717 1.24829-1.3672 2.25046-3.28498 6.31576-4.03671 8.55697-.2115.63059-.45351 1.30528-.53779 1.49931-.58705 1.3515-1.87954 6.32102-2.20205 8.46666-.98692 6.56602-.96491 5.23645-.98084 59.2667-.0168 56.8048-.0361 57.7495-1.32077 64.3819-.15033.7761-.32028 1.7503-.37767 2.1648-.0574.4146-.1732.7963-.25734.8483-.0842.052-.153.2628-.153.4685s-.075.6177-.16671.9156c-.0917.2979-.29796 1.018-.45836 1.6-.33318 1.2091-.91313 3.0072-1.13784 3.5278-.0838.194-.32099.8238-.52721 1.3994-.58969 1.6459-2.78626 6.0397-3.82283 7.6467-.51843.8037-.9426 1.4981-.9426 1.543 0 .045-.29498.4985-.65551 1.0081-7.25255 10.2502-17.7776 17.0606-29.59519 19.1499-5.01494.8866-9.45549 1.0846-14.55208.6488zm115.18194-.012c-4.38799-.3503-7.70841-.8681-10.58333-1.6505-.33955-.092-.89517-.2421-1.23472-.3328-.33955-.091-1.41111-.4433-2.38125-.7839-4.58671-1.6099-7.78648-3.2846-12.61181-6.6009-6.98562-4.8011-13.83451-14.3064-16.75251-23.2502-.22156-.679-.4629-1.3934-.53631-1.5875-.0734-.194-.23109-.7099-.35042-1.1465-.11932-.4365-.28042-.9922-.358-1.2347-.0776-.2425-.18445-.6791-.23749-.9701-.053-.2911-.22225-1.0848-.37601-1.7639-.15377-.6791-.36104-1.7507-.4606-2.3813-.94893-6.0101-.9082-3.5645-.98708-59.2666-.0732-51.69804-.0419-55.41423.49462-58.64936.24964-1.50544.51589-2.89929.69071-3.61597.0828-.33955.28361-1.17299.44619-1.85208.33248-1.38874.59229-2.30123.80357-2.82223.0787-.19402.26552-.7308.41519-1.19282 5.51006-17.00974 21.82217-30.86104 39.78592-33.78389 4.12005-.67036 5.02434-.74437 9.08403-.74343 5.7662.001 8.92841.42563 14.46389 1.94068 5.04936 1.38201 11.62816 4.6208 16.07418 7.91345 4.39191 3.25257 8.50667 7.36376 11.32377 11.31393.44971.63059.87867 1.17299.95325 1.20532.0746.0323.1356.13075.1356.21869 0 .0879.36988.73616.82195 1.4405 1.46268 2.27889 3.43119 6.10335 4.47235 8.68896.25122.62389 1.2251 3.71297 1.58486 5.02709.11952.43656.28087.99218.35856 1.23472.14565.45466.53947 2.68232.85755 4.85069.55631 3.79244.57487 5.95718.49061 57.23825-.0547 33.2685-.149 52.1644-.26725 53.534-.4116 4.7669-.76421 7.5023-1.27328 9.8778-.10395.485-.23194 1.1801-.28442 1.5445-.0525.3644-.16641.7064-.25318.76-.0868.054-.15775.2658-.15775.4715 0 .2056-.0751.6177-.16689.9156-.0918.2979-.37232 1.2164-.62341 2.041-.25108.8246-.52447 1.6581-.60753 1.8521-.0831.194-.45536 1.1068-.82732 2.0285-.63227 1.5665-1.60177 3.5606-2.52983 5.2034-.65528 1.1599-1.67242 2.816-1.78754 2.9104-.0591.048-.33075.4454-.60357.882-1.56302 2.501-5.88619 7.2357-8.46433 9.2701-.48507.3827-.92164.739-.97014.7917-.0485.053-.7775.6084-1.61997 1.2348-9.46446 7.0366-22.2804 10.3301-35.95086 9.239z" fill="#151515" transform="translate(589.46497 -608.08397)"/></svg>