<?xml version="1.0" encoding="UTF-8" standalone="no"?>
<!-- Created with Inkscape (http://www.inkscape.org/) -->

<svg
   width="344.46198mm"
   height="283.99295mm"
   viewBox="0 0 344.46198 283.99295"
   version="1.1"
   id="svg1"
   xml:space="preserve"
   xmlns="http://www.w3.org/2000/svg"
   xmlns:svg="http://www.w3.org/2000/svg"><defs
     id="defs1" /><g
     id="layer1"
     transform="translate(591.36243,-959.26747)"><path
       style="fill:#ededed;fill-opacity:1"
       d="m -538.89227,1243.0508 c -3.10054,-0.3116 -3.57253,-0.3841 -7.05556,-1.084 -1.34653,-0.2706 -3.37716,-0.7999 -4.32153,-1.1264 -2.6444,-0.9142 -3.25045,-1.1445 -5.37986,-2.0441 -3.63335,-1.535 -11.5816,-6.2425 -12.6118,-7.4696 -0.0485,-0.058 -0.56445,-0.5009 -1.14653,-0.9848 -2.59213,-2.1546 -6.13225,-5.6919 -7.76955,-7.7633 -0.38342,-0.4851 -0.74006,-0.9216 -0.79255,-0.9702 -0.11719,-0.1083 -2.42936,-3.2305 -2.95554,-3.991 -1.47617,-2.1334 -4.23205,-7.2377 -5.32115,-9.8555 -0.0807,-0.194 -0.26902,-0.6322 -0.41843,-0.9738 -0.49574,-1.1333 -1.62802,-4.1307 -1.831,-4.847 -0.10996,-0.3881 -0.39839,-1.3803 -0.64097,-2.2049 -0.24257,-0.8246 -0.53211,-1.9755 -0.64341,-2.5576 -0.11131,-0.5821 -0.27043,-1.3362 -0.3536,-1.6757 -0.39383,-1.6077 -0.85704,-5.397 -1.05703,-8.6472 -0.22729,-3.6937 -0.22966,-140.739 -0.002,-144.6347 0.25243,-4.3292 0.8883,-9.1102 1.67738,-12.6118 0.15303,-0.6791 0.35842,-1.5919 0.45643,-2.0285 0.098,-0.4366 0.25942,-1.1113 0.3587,-1.4993 0.0993,-0.3881 0.22324,-0.9643 0.27545,-1.2805 0.0522,-0.3162 0.16555,-0.6185 0.25184,-0.6718 0.0863,-0.053 0.1569,-0.2355 0.1569,-0.4048 0,-0.3606 1.15764,-4.0275 1.41298,-4.4756 0.096,-0.1684 0.17452,-0.4614 0.17452,-0.651 0,-0.1897 0.0691,-0.3875 0.15361,-0.4397 0.0845,-0.052 0.20039,-0.3289 0.25757,-0.6148 0.0572,-0.2859 0.27379,-0.9028 0.48134,-1.3707 0.20755,-0.468 0.44073,-1.0096 0.51819,-1.2036 0.0774,-0.194 0.25972,-0.6306 0.40503,-0.9702 0.14532,-0.3395 0.44442,-1.0539 0.66466,-1.5875 0.9125,-2.2106 4.08623,-8.215 5.68725,-10.7597 9.22723,-14.66587 21.48986,-25.84157 36.37054,-33.14672 1.97187,-0.96802 4.48282,-2.13102 4.60092,-2.13102 0.0425,0 0.4534,-0.16666 0.91316,-0.37036 0.45976,-0.2037 1.01452,-0.44182 1.2328,-0.52917 0.21828,-0.0873 0.57547,-0.23659 0.79375,-0.33165 0.21828,-0.0951 0.99219,-0.37735 1.71979,-0.6273 0.7276,-0.24995 1.48167,-0.52134 1.6757,-0.6031 0.71132,-0.29974 3.07869,-1.0632 4.40972,-1.42211 9.15403,-2.46838 14.79901,-3.22671 23.98889,-3.2226 7.25907,0.003 10.33229,0.25565 15.7868,1.29657 0.43656,0.0833 1.23527,0.22509 1.7749,0.31506 0.94221,0.15709 3.46027,0.73334 4.75149,1.08736 4.78701,1.31249 8.19376,2.42917 10.58333,3.46905 0.33955,0.14776 0.77611,0.32932 0.97014,0.40346 1.40989,0.53875 3.68721,1.5699 6.17361,2.79534 3.56974,1.75938 10.41759,5.83209 12.00608,7.14053 0.18763,0.15455 1.33796,1.02053 2.55629,1.92439 3.60895,2.67745 8.06884,6.80233 9.1563,8.46851 0.36204,0.55472 1.00751,1.41768 1.43438,1.9177 3.7762,4.4233 2.65551,10.1202 -2.53691,12.89606 -0.78004,0.417 -1.70309,0.9146 -2.05122,1.1056 -6.99087,3.8368 -17.70419,13.6144 -21.45871,19.5846 -0.18303,0.291 -0.38592,0.5688 -0.45087,0.6173 -0.12788,0.096 -2.80566,4.2824 -3.38439,5.2917 -0.86396,1.5067 -1.75753,3.181 -2.30649,4.3215 -1.09681,2.2788 -1.80593,3.9127 -2.5645,5.909 -0.31334,0.8247 -0.62753,1.6184 -0.6982,1.7639 -0.0707,0.1456 -0.3521,0.979 -0.62539,1.8521 -0.27329,0.8731 -0.55744,1.7463 -0.63145,1.9403 -0.074,0.194 -0.2322,0.71 -0.35152,1.1465 -0.11932,0.4366 -0.28023,0.9922 -0.35758,1.2347 -0.18954,0.5944 -0.449,1.7409 -0.77843,3.4396 -0.1505,0.7761 -0.35109,1.808 -0.44575,2.2931 -0.21866,1.1204 -0.31845,1.7758 -0.53714,3.5278 -0.0969,0.7761 -0.26711,2.1255 -0.37828,2.9986 -0.14673,1.1524 -0.23422,19.4484 -0.31926,66.7631 -0.11847,65.9143 -0.11621,65.6947 -0.71614,69.5855 -0.6088,3.9483 -0.77032,4.8694 -1.00521,5.7326 -0.1452,0.5336 -0.30017,1.2083 -0.34439,1.4993 -0.0442,0.291 -0.14631,0.6879 -0.22688,0.8819 -0.0806,0.1941 -0.32304,0.9481 -0.53884,1.6757 -0.53874,1.8165 -0.86848,2.8458 -1.04542,3.2632 -0.0822,0.1941 -0.27668,0.6426 -0.43209,0.9968 -0.15541,0.3542 -0.28257,0.7023 -0.28257,0.7735 0,0.2103 -2.57263,5.4051 -3.19194,6.4454 -3.1386,5.2719 -8.60252,11.7303 -12.59487,14.8874 -0.48506,0.3836 -0.92163,0.7441 -0.97013,0.801 -0.0485,0.057 -0.4057,0.337 -0.79375,0.6223 -0.38806,0.2854 -0.74525,0.5617 -0.79375,0.6141 -2.88961,3.1193 -14.57713,8.2306 -22.225,9.7197 -4.45048,0.8664 -12.05872,1.227 -16.49236,0.7815 z m 120.38541,-0.013 c -3.28649,-0.281 -4.3034,-0.4463 -7.76111,-1.2611 -2.13578,-0.5034 -2.04611,-0.4748 -4.90484,-1.5639 -12.00858,-4.5752 -21.99804,-14.6631 -26.57842,-26.8403 -0.35802,-0.9518 -0.71804,-1.8893 -0.80004,-2.0834 -0.81016,-1.9168 -1.96202,-6.3298 -2.55526,-9.7895 -0.54126,-3.1566 -0.66256,-4.0306 -0.8324,-5.9973 -0.26183,-3.0318 -0.39802,-130.0181 -0.14303,-133.3499 0.29026,-3.7925 1.15921,-9.5846 1.60098,-10.6716 0.0789,-0.194 0.1809,-0.5512 0.22676,-0.7937 0.29388,-1.5542 2.11163,-7.0863 2.89794,-8.8195 0.19805,-0.4365 0.57463,-1.3096 0.83682,-1.9402 0.47739,-1.1482 1.50343,-3.2507 2.15193,-4.4098 1.45698,-2.6039 1.69601,-3.0009 3.18006,-5.2807 4.71391,-7.2418 10.9951,-13.5821 18.5695,-18.7445 1.21267,-0.8265 2.56205,-1.7023 2.99861,-1.9462 0.43656,-0.2439 1.27,-0.7137 1.85208,-1.044 2.03831,-1.1567 5.90165,-2.9853 8.0257,-3.7987 0.63059,-0.2415 1.30528,-0.5073 1.4993,-0.5907 0.48918,-0.2103 2.83323,-0.9701 3.79236,-1.2292 0.43657,-0.118 0.9525,-0.2788 1.14653,-0.3575 0.19403,-0.079 0.55122,-0.1807 0.79375,-0.2269 0.24254,-0.046 0.87754,-0.2026 1.41111,-0.3478 0.53358,-0.1451 1.68452,-0.3955 2.55764,-0.5563 0.87313,-0.1609 1.74625,-0.3326 1.94028,-0.3816 0.36818,-0.093 1.89459,-0.3175 4.14514,-0.6094 4.69524,-0.60904 13.95961,-0.3299 18.69722,0.5635 1.92792,0.3635 4.92085,1.0216 5.46806,1.2024 0.39813,0.1315 0.95724,0.2917 2.55764,0.7329 1.13568,0.3131 3.38787,1.087 4.09911,1.4086 0.41126,0.186 0.81789,0.3381 0.90362,0.3381 0.14591,0 0.74475,0.247 2.67018,1.1012 2.2124,0.9815 6.19349,3.0511 7.08279,3.6819 0.25751,0.1827 0.52177,0.3322 0.58724,0.3322 0.13029,0 3.47612,2.1269 3.61886,2.3004 0.0485,0.059 0.57492,0.4353 1.16981,0.8361 0.93838,0.6324 2.63203,1.9709 4.82741,3.8153 2.74664,2.3075 7.6822,7.8077 10.06476,11.2162 0.71204,1.0187 1.63582,2.2475 2.05286,2.7307 3.5024,4.0584 2.47432,9.2927 -2.48417,12.6476 -4.21848,2.8543 -9.21596,7.4584 -11.71567,10.7934 -1.24233,1.6575 -3.20944,4.4723 -3.20944,4.5925 0,0.037 -0.32273,0.599 -0.71717,1.2483 -1.3672,2.2505 -3.28498,6.3158 -4.03671,8.557 -0.2115,0.6306 -0.45351,1.3052 -0.53779,1.4993 -0.58705,1.3515 -1.87954,6.321 -2.20205,8.4666 -0.98692,6.5661 -0.96491,5.2365 -0.98084,59.2667 -0.0168,56.8048 -0.0361,57.7495 -1.32077,64.3819 -0.15033,0.7761 -0.32028,1.7503 -0.37767,2.1648 -0.0574,0.4146 -0.1732,0.7963 -0.25734,0.8483 -0.0842,0.052 -0.153,0.2628 -0.153,0.4685 0,0.2057 -0.075,0.6177 -0.16671,0.9156 -0.0917,0.2979 -0.29796,1.018 -0.45836,1.6 -0.33318,1.2091 -0.91313,3.0072 -1.13784,3.5278 -0.0838,0.194 -0.32099,0.8238 -0.52721,1.3994 -0.58969,1.6459 -2.78626,6.0397 -3.82283,7.6467 -0.51843,0.8037 -0.9426,1.4981 -0.9426,1.543 0,0.045 -0.29498,0.4985 -0.65551,1.0081 -7.25255,10.2502 -17.7776,17.0606 -29.59519,19.1499 -5.01494,0.8866 -9.45549,1.0846 -14.55208,0.6488 z m 115.18194,-0.012 c -4.38799,-0.3503 -7.70841,-0.8681 -10.58333,-1.6505 -0.33955,-0.092 -0.89517,-0.2421 -1.23472,-0.3328 -0.33955,-0.091 -1.41111,-0.4433 -2.38125,-0.7839 -4.58671,-1.6099 -7.78648,-3.2846 -12.61181,-6.6009 -6.98562,-4.8011 -13.83451,-14.3064 -16.75251,-23.2502 -0.22156,-0.679 -0.4629,-1.3934 -0.53631,-1.5875 -0.0734,-0.194 -0.23109,-0.7099 -0.35042,-1.1465 -0.11932,-0.4365 -0.28042,-0.9922 -0.358,-1.2347 -0.0776,-0.2425 -0.18445,-0.6791 -0.23749,-0.9701 -0.053,-0.2911 -0.22225,-1.0848 -0.37601,-1.7639 -0.15377,-0.6791 -0.36104,-1.7507 -0.4606,-2.3813 -0.94893,-6.0101 -0.9082,-3.5645 -0.98708,-59.2666 -0.0732,-51.698 -0.0419,-55.4142 0.49462,-58.6493 0.24964,-1.5055 0.51589,-2.8993 0.69071,-3.616 0.0828,-0.3395 0.28361,-1.173 0.44619,-1.8521 0.33248,-1.3887 0.59229,-2.3012 0.80357,-2.8222 0.0787,-0.194 0.26552,-0.7308 0.41519,-1.1928 5.51006,-17.0098 21.82217,-30.8611 39.78592,-33.7839 4.12005,-0.6704 5.02434,-0.7444 9.08403,-0.7434 5.7662,10e-4 8.92841,0.4256 14.46389,1.9406 5.04936,1.382 11.62816,4.6208 16.07418,7.9135 4.39191,3.2526 8.50667,7.3637 11.32377,11.3139 0.44971,0.6306 0.87867,1.173 0.95325,1.2053 0.0746,0.032 0.1356,0.1308 0.1356,0.2187 0,0.088 0.36988,0.7362 0.82195,1.4405 1.46268,2.2789 3.43119,6.1034 4.47235,8.689 0.25122,0.6239 1.2251,3.713 1.58486,5.0271 0.11952,0.4365 0.28087,0.9922 0.35856,1.2347 0.14565,0.4547 0.53947,2.6823 0.85755,4.8507 0.55631,3.7924 0.57487,5.9572 0.49061,57.2382 -0.0547,33.2685 -0.149,52.1644 -0.26725,53.534 -0.4116,4.7669 -0.76421,7.5023 -1.27328,9.8778 -0.10395,0.485 -0.23194,1.1801 -0.28442,1.5445 -0.0525,0.3644 -0.16641,0.7064 -0.25318,0.76 -0.0868,0.054 -0.15775,0.2658 -0.15775,0.4715 0,0.2056 -0.0751,0.6177 -0.16689,0.9156 -0.0918,0.2979 -0.37232,1.2164 -0.62341,2.041 -0.25108,0.8246 -0.52447,1.6581 -0.60753,1.8521 -0.0831,0.194 -0.45536,1.1068 -0.82732,2.0285 -0.63227,1.5665 -1.60177,3.5606 -2.52983,5.2034 -0.65528,1.1599 -1.67242,2.816 -1.78754,2.9104 -0.0591,0.048 -0.33075,0.4454 -0.60357,0.882 -1.56302,2.501 -5.88619,7.2357 -8.46433,9.2701 -0.48507,0.3827 -0.92164,0.739 -0.97014,0.7917 -0.0485,0.053 -0.7775,0.6084 -1.61997,1.2348 -9.46446,7.0366 -22.2804,10.3301 -35.95086,9.239 z"
       id="path2-3" /></g></svg>
