<svg height="283.99295mm" viewBox="0 0 344.46198 283.99295" width="344.46198mm" xmlns="http://www.w3.org/2000/svg"><path d="m-538.89227 1243.0508c-3.10054-.3116-3.57253-.3841-7.05556-1.084-1.34653-.2706-3.37716-.7999-4.32153-1.1264-2.6444-.9142-3.25045-1.1445-5.37986-2.0441-3.63335-1.535-11.5816-6.2425-12.6118-7.4696-.0485-.058-.56445-.5009-1.14653-.9848-2.59213-2.1546-6.13225-5.6919-7.76955-7.7633-.38342-.4851-.74006-.9216-.79255-.9702-.11719-.1083-2.42936-3.2305-2.95554-3.991-1.47617-2.1334-4.23205-7.2377-5.32115-9.8555-.0807-.194-.26902-.6322-.41843-.9738-.49574-1.1333-1.62802-4.1307-1.831-4.847-.10996-.3881-.39839-1.3803-.64097-2.2049-.24257-.8246-.53211-1.9755-.64341-2.5576-.11131-.5821-.27043-1.3362-.3536-1.6757-.39383-1.6077-.85704-5.397-1.05703-8.6472-.22729-3.6937-.22966-140.739-.002-144.6347.25243-4.3292.8883-9.1102 1.67738-12.6118.15303-.6791.35842-1.5919.45643-2.0285.098-.4366.25942-1.1113.3587-1.4993.0993-.3881.22324-.9643.27545-1.2805.0522-.3162.16555-.6185.25184-.6718.0863-.053.1569-.2355.1569-.4048 0-.3606 1.15764-4.0275 1.41298-4.4756.096-.1684.17452-.4614.17452-.651 0-.1897.0691-.3875.15361-.4397.0845-.052.20039-.3289.25757-.6148.0572-.2859.27379-.9028.48134-1.3707.20755-.468.44073-1.0096.51819-1.2036.0774-.194.25972-.6306.40503-.9702.14532-.3395.44442-1.0539.66466-1.5875.9125-2.2106 4.08623-8.215 5.68725-10.7597 9.22723-14.66587 21.48986-25.84157 36.37054-33.14672 1.97187-.96802 4.48282-2.13102 4.60092-2.13102.0425 0 .4534-.16666.91316-.37036s1.01452-.44182 1.2328-.52917c.21828-.0873.57547-.23659.79375-.33165.21828-.0951.99219-.37735 1.71979-.6273s1.48167-.52134 1.6757-.6031c.71132-.29974 3.07869-1.0632 4.40972-1.42211 9.15403-2.46838 14.79901-3.22671 23.98889-3.2226 7.25907.003 10.33229.25565 15.7868 1.29657.43656.0833 1.23527.22509 1.7749.31506.94221.15709 3.46027.73334 4.75149 1.08736 4.78701 1.31249 8.19376 2.42917 10.58333 3.46905.33955.14776.77611.32932.97014.40346 1.40989.53875 3.68721 1.5699 6.17361 2.79534 3.56974 1.75938 10.41759 5.83209 12.00608 7.14053.18763.15455 1.33796 1.02053 2.55629 1.92439 3.60895 2.67745 8.06884 6.80233 9.1563 8.46851.36204.55472 1.00751 1.41768 1.43438 1.9177 3.7762 4.4233 2.65551 10.1202-2.53691 12.89606-.78004.417-1.70309.9146-2.05122 1.1056-6.99087 3.8368-17.70419 13.6144-21.45871 19.5846-.18303.291-.38592.5688-.45087.6173-.12788.096-2.80566 4.2824-3.38439 5.2917-.86396 1.5067-1.75753 3.181-2.30649 4.3215-1.09681 2.2788-1.80593 3.9127-2.5645 5.909-.31334.8247-.62753 1.6184-.6982 1.7639-.0707.1456-.3521.979-.62539 1.8521s-.55744 1.7463-.63145 1.9403c-.074.194-.2322.71-.35152 1.1465-.11932.4366-.28023.9922-.35758 1.2347-.18954.5944-.449 1.7409-.77843 3.4396-.1505.7761-.35109 1.808-.44575 2.2931-.21866 1.1204-.31845 1.7758-.53714 3.5278-.0969.7761-.26711 2.1255-.37828 2.9986-.14673 1.1524-.23422 19.4484-.31926 66.7631-.11847 65.9143-.11621 65.6947-.71614 69.5855-.6088 3.9483-.77032 4.8694-1.00521 5.7326-.1452.5336-.30017 1.2083-.34439 1.4993-.0442.291-.14631.6879-.22688.8819-.0806.1941-.32304.9481-.53884 1.6757-.53874 1.8165-.86848 2.8458-1.04542 3.2632-.0822.1941-.27668.6426-.43209.9968s-.28257.7023-.28257.7735c0 .2103-2.57263 5.4051-3.19194 6.4454-3.1386 5.2719-8.60252 11.7303-12.59487 14.8874-.48506.3836-.92163.7441-.97013.801-.0485.057-.4057.337-.79375.6223-.38806.2854-.74525.5617-.79375.6141-2.88961 3.1193-14.57713 8.2306-22.225 9.7197-4.45048.8664-12.05872 1.227-16.49236.7815zm120.38541-.013c-3.28649-.281-4.3034-.4463-7.76111-1.2611-2.13578-.5034-2.04611-.4748-4.90484-1.5639-12.00858-4.5752-21.99804-14.6631-26.57842-26.8403-.35802-.9518-.71804-1.8893-.80004-2.0834-.81016-1.9168-1.96202-6.3298-2.55526-9.7895-.54126-3.1566-.66256-4.0306-.8324-5.9973-.26183-3.0318-.39802-130.0181-.14303-133.3499.29026-3.7925 1.15921-9.5846 1.60098-10.6716.0789-.194.1809-.5512.22676-.7937.29388-1.5542 2.11163-7.0863 2.89794-8.8195.19805-.4365.57463-1.3096.83682-1.9402.47739-1.1482 1.50343-3.2507 2.15193-4.4098 1.45698-2.6039 1.69601-3.0009 3.18006-5.2807 4.71391-7.2418 10.9951-13.5821 18.5695-18.7445 1.21267-.8265 2.56205-1.7023 2.99861-1.9462s1.27-.7137 1.85208-1.044c2.03831-1.1567 5.90165-2.9853 8.0257-3.7987.63059-.2415 1.30528-.5073 1.4993-.5907.48918-.2103 2.83323-.9701 3.79236-1.2292.43657-.118.9525-.2788 1.14653-.3575.19403-.079.55122-.1807.79375-.2269.24254-.046.87754-.2026 1.41111-.3478.53358-.1451 1.68452-.3955 2.55764-.5563.87313-.1609 1.74625-.3326 1.94028-.3816.36818-.093 1.89459-.3175 4.14514-.6094 4.69524-.60904 13.95961-.3299 18.69722.5635 1.92792.3635 4.92085 1.0216 5.46806 1.2024.39813.1315.95724.2917 2.55764.7329 1.13568.3131 3.38787 1.087 4.09911 1.4086.41126.186.81789.3381.90362.3381.14591 0 .74475.247 2.67018 1.1012 2.2124.9815 6.19349 3.0511 7.08279 3.6819.25751.1827.52177.3322.58724.3322.13029 0 3.47612 2.1269 3.61886 2.3004.0485.059.57492.4353 1.16981.8361.93838.6324 2.63203 1.9709 4.82741 3.8153 2.74664 2.3075 7.6822 7.8077 10.06476 11.2162.71204 1.0187 1.63582 2.2475 2.05286 2.7307 3.5024 4.0584 2.47432 9.2927-2.48417 12.6476-4.21848 2.8543-9.21596 7.4584-11.71567 10.7934-1.24233 1.6575-3.20944 4.4723-3.20944 4.5925 0 .037-.32273.599-.71717 1.2483-1.3672 2.2505-3.28498 6.3158-4.03671 8.557-.2115.6306-.45351 1.3052-.53779 1.4993-.58705 1.3515-1.87954 6.321-2.20205 8.4666-.98692 6.5661-.96491 5.2365-.98084 59.2667-.0168 56.8048-.0361 57.7495-1.32077 64.3819-.15033.7761-.32028 1.7503-.37767 2.1648-.0574.4146-.1732.7963-.25734.8483-.0842.052-.153.2628-.153.4685s-.075.6177-.16671.9156c-.0917.2979-.29796 1.018-.45836 1.6-.33318 1.2091-.91313 3.0072-1.13784 3.5278-.0838.194-.32099.8238-.52721 1.3994-.58969 1.6459-2.78626 6.0397-3.82283 7.6467-.51843.8037-.9426 1.4981-.9426 1.543 0 .045-.29498.4985-.65551 1.0081-7.25255 10.2502-17.7776 17.0606-29.59519 19.1499-5.01494.8866-9.45549 1.0846-14.55208.6488zm115.18194-.012c-4.38799-.3503-7.70841-.8681-10.58333-1.6505-.33955-.092-.89517-.2421-1.23472-.3328-.33955-.091-1.41111-.4433-2.38125-.7839-4.58671-1.6099-7.78648-3.2846-12.61181-6.6009-6.98562-4.8011-13.83451-14.3064-16.75251-23.2502-.22156-.679-.4629-1.3934-.53631-1.5875-.0734-.194-.23109-.7099-.35042-1.1465-.11932-.4365-.28042-.9922-.358-1.2347-.0776-.2425-.18445-.6791-.23749-.9701-.053-.2911-.22225-1.0848-.37601-1.7639-.15377-.6791-.36104-1.7507-.4606-2.3813-.94893-6.0101-.9082-3.5645-.98708-59.2666-.0732-51.698-.0419-55.4142.49462-58.6493.24964-1.5055.51589-2.8993.69071-3.616.0828-.3395.28361-1.173.44619-1.8521.33248-1.3887.59229-2.3012.80357-2.8222.0787-.194.26552-.7308.41519-1.1928 5.51006-17.0098 21.82217-30.8611 39.78592-33.7839 4.12005-.6704 5.02434-.7444 9.08403-.7434 5.7662.001 8.92841.4256 14.46389 1.9406 5.04936 1.382 11.62816 4.6208 16.07418 7.9135 4.39191 3.2526 8.50667 7.3637 11.32377 11.3139.44971.6306.87867 1.173.95325 1.2053.0746.032.1356.1308.1356.2187 0 .088.36988.7362.82195 1.4405 1.46268 2.2789 3.43119 6.1034 4.47235 8.689.25122.6239 1.2251 3.713 1.58486 5.0271.11952.4365.28087.9922.35856 1.2347.14565.4547.53947 2.6823.85755 4.8507.55631 3.7924.57487 5.9572.49061 57.2382-.0547 33.2685-.149 52.1644-.26725 53.534-.4116 4.7669-.76421 7.5023-1.27328 9.8778-.10395.485-.23194 1.1801-.28442 1.5445-.0525.3644-.16641.7064-.25318.76-.0868.054-.15775.2658-.15775.4715 0 .2056-.0751.6177-.16689.9156-.0918.2979-.37232 1.2164-.62341 2.041-.25108.8246-.52447 1.6581-.60753 1.8521-.0831.194-.45536 1.1068-.82732 2.0285-.63227 1.5665-1.60177 3.5606-2.52983 5.2034-.65528 1.1599-1.67242 2.816-1.78754 2.9104-.0591.048-.33075.4454-.60357.882-1.56302 2.501-5.88619 7.2357-8.46433 9.2701-.48507.3827-.92164.739-.97014.7917-.0485.053-.7775.6084-1.61997 1.2348-9.46446 7.0366-22.2804 10.3301-35.95086 9.239z" fill="#ededed" transform="translate(591.36243 -959.26747)"/></svg>